<?xml version="1.0" encoding="iso-8859-1"?>
<!-- Generator: Adobe Illustrator 19.0.0, SVG Export Plug-In . SVG Version: 6.00 Build 0)  -->
<svg version="1.1" id="Capa_1" xmlns="http://www.w3.org/2000/svg" xmlns:xlink="http://www.w3.org/1999/xlink" x="0px" y="0px"
	 viewBox="0 0 60 60" style="enable-background:new 0 0 60 60;" xml:space="preserve">
<g>
	<g>
		<rect x="51.5" y="34" width="2" height="26"/>
		<path d="M7.5,46V24.1c0-12,10.1-22.1,22-22.1V0c-13,0-24,11-24,24.1V47c0,0.6,0.4,1,1,1h21v12h2V48h4v-2h-5H7.5z"/>
		<path d="M41.5,0c-7.2,0-13,5.8-13,13c0,4.8,2.7,9.3,7,11.5V29c0,0.6,0.4,1,1,1h1v3c0,0.6,0.4,1,1,1h2v3c0,2.5,1.2,3.8,2.3,4.9
			c0.9,1.1,1.7,1.8,1.7,3.6c0,1.7-0.7,2.6-1.7,3.6c-1.1,1.1-2.3,2.4-2.3,4.9v6h2v-6c0-1.7,0.7-2.5,1.7-3.5c1.1-1.1,2.3-2.4,2.3-5
			c0-2.5-1.2-3.8-2.3-4.9c-0.9-1.1-1.7-1.8-1.7-3.6v-3h2c0.6,0,1-0.4,1-1v-3h1c0.6,0,1-0.4,1-1v-4.5c4.3-2.2,7-6.7,7-11.5
			C54.5,5.8,48.7,0,41.5,0z M43.5,32h-4v-2h4V32z M46.1,23c-0.4,0.2-0.6,0.5-0.6,0.9V28h-1h-2V11h2V9h-6v2h2v17h-2h-1v-4.1
			c0-0.4-0.2-0.7-0.6-0.9c-3.9-1.8-6.4-5.7-6.4-10c0-6.1,4.9-11,11-11s11,4.9,11,11C52.5,17.3,50,21.2,46.1,23z"/>
		<path d="M13.5,29v7c0,0.6,0.4,1,1,1h5v-2h-4v-6H13.5z"/>
	</g>
</g>
<g>
</g>
<g>
</g>
<g>
</g>
<g>
</g>
<g>
</g>
<g>
</g>
<g>
</g>
<g>
</g>
<g>
</g>
<g>
</g>
<g>
</g>
<g>
</g>
<g>
</g>
<g>
</g>
<g>
</g>
</svg>
